<svg width="372" height="276" viewBox="0 0 372 276" fill="none" xmlns="http://www.w3.org/2000/svg">
<g clip-path="url(#clip0_23_80)">
<path d="M74.1185 276C115.053 276 148.237 273.312 148.237 269.997C148.237 266.682 115.053 263.994 74.1185 263.994C33.184 263.994 0 266.682 0 269.997C0 273.312 33.184 276 74.1185 276Z" fill="#E6E6E6"/>
<path d="M56.6548 61.2395C69.5537 55.3891 85.6194 59.0959 101.309 61.6685C101.455 58.553 103.225 54.7613 101.371 52.5877C99.119 49.947 99.3264 47.1724 100.682 44.3818C104.147 37.2459 99.182 29.6528 94.1685 23.3393C93.0385 21.9194 91.6103 20.8038 90.0001 20.0831C88.3899 19.3624 86.6429 19.0569 84.9011 19.1913L75.614 19.8987C73.3541 20.0709 71.1974 20.9749 69.4325 22.4899C67.6675 24.0048 66.3785 26.0584 65.738 28.3759C63.5204 31.5921 62.3335 34.7993 63.0808 37.9899C59.7592 40.4105 59.2012 43.3324 60.6938 46.6263C61.9594 48.7003 61.9459 50.7191 60.6362 52.682C58.9161 55.1846 57.5986 57.9751 56.7379 60.9391L56.6548 61.2395Z" fill="#2F2E41"/>
<path d="M363.185 238.598H100.29C97.9525 238.598 95.7104 237.607 94.0573 235.844C92.4041 234.081 91.4754 231.69 91.4754 229.197C186.775 217.387 280.283 217.387 372 229.197C372 231.69 371.071 234.081 369.418 235.844C367.765 237.607 365.523 238.598 363.185 238.598Z" fill="#2F2E41"/>
<path d="M372 229.75L91.4754 229.197L123.987 170.861L124.143 170.585V42.0186C124.143 40.4581 124.431 38.9128 124.991 37.4711C125.551 36.0293 126.372 34.7193 127.406 33.6159C128.441 32.5124 129.669 31.6371 131.022 31.04C132.374 30.4429 133.823 30.1356 135.286 30.1357H326.634C328.097 30.1356 329.546 30.4429 330.898 31.04C332.25 31.6371 333.479 32.5124 334.514 33.6159C335.548 34.7193 336.369 36.0293 336.929 37.4711C337.489 38.9128 337.777 40.4581 337.777 42.0186V171.47L372 229.75Z" fill="#3F3D56"/>
<path d="M134.63 40C133.667 40.0012 132.745 40.4093 132.064 41.135C131.384 41.8606 131.001 42.8444 131 43.8706V161.096C131.001 162.122 131.384 163.106 132.064 163.832C132.745 164.557 133.667 164.965 134.63 164.967H328.041C329.004 164.965 329.926 164.557 330.607 163.831C331.287 163.106 331.67 162.122 331.671 161.096V43.8706C331.67 42.8444 331.287 41.8606 330.607 41.135C329.926 40.4094 329.004 40.0012 328.041 40H134.63Z" fill="white"/>
<path d="M135.842 178.879C135.545 178.88 135.254 178.971 135.004 179.142C134.753 179.313 134.554 179.557 134.429 179.845L124.411 203.068C124.302 203.321 124.254 203.599 124.272 203.877C124.291 204.154 124.374 204.422 124.514 204.657C124.655 204.891 124.849 205.084 125.078 205.217C125.307 205.351 125.563 205.421 125.824 205.421H336.495C336.761 205.421 337.021 205.348 337.253 205.211C337.484 205.073 337.679 204.874 337.819 204.634C337.958 204.393 338.037 204.119 338.049 203.836C338.061 203.554 338.005 203.273 337.886 203.02L326.997 179.796C326.869 179.52 326.67 179.288 326.425 179.126C326.179 178.964 325.895 178.878 325.606 178.879H135.842Z" fill="#2F2E41"/>
<path d="M230.96 36.4946C232.249 36.4946 233.293 35.3806 233.293 34.0064C233.293 32.6321 232.249 31.5181 230.96 31.5181C229.671 31.5181 228.627 32.6321 228.627 34.0064C228.627 35.3806 229.671 36.4946 230.96 36.4946Z" fill="white"/>
<path d="M210.253 209.844C209.911 209.845 209.578 209.965 209.307 210.187C209.036 210.409 208.84 210.72 208.751 211.072L206.238 221.025C206.176 221.271 206.168 221.528 206.214 221.778C206.26 222.028 206.36 222.263 206.505 222.465C206.65 222.667 206.837 222.831 207.051 222.944C207.265 223.056 207.501 223.115 207.74 223.115H255.529C255.777 223.115 256.022 223.052 256.242 222.931C256.463 222.809 256.653 222.634 256.796 222.418C256.94 222.203 257.034 221.954 257.069 221.692C257.104 221.43 257.08 221.163 256.999 220.913L253.768 210.96C253.662 210.635 253.464 210.352 253.2 210.152C252.937 209.952 252.622 209.844 252.298 209.844H210.253Z" fill="#2F2E41"/>
<path d="M337.777 168.65V170.861H123.987L124.148 170.585V168.65H337.777Z" fill="#2F2E41"/>
<path d="M330.297 81.4129C350.343 81.4129 366.594 64.0834 366.594 42.7064C366.594 21.3295 350.343 4 330.297 4C310.251 4 294 21.3295 294 42.7064C294 64.0834 310.251 81.4129 330.297 81.4129Z" fill="#FF6372"/>
<path d="M346.851 55.5714H316.777C316.227 55.5708 315.699 55.3376 315.311 54.9229C314.922 54.5083 314.703 53.946 314.703 53.3596V34.0064C314.703 33.42 314.922 32.8578 315.311 32.4431C315.7 32.0284 316.227 31.7952 316.777 31.7946H346.851C347.401 31.7952 347.928 32.0284 348.317 32.4431C348.706 32.8578 348.925 33.42 348.925 34.0064V53.3596C348.925 53.946 348.706 54.5083 348.317 54.9229C347.929 55.3376 347.401 55.5708 346.851 55.5714ZM316.777 34.0064V53.3596H346.853L346.851 34.0064L316.777 34.0064Z" fill="white"/>
<path d="M341.147 34.0064H322.48V25.1592C322.48 18.7511 326.406 14.1002 331.814 14.1002C337.222 14.1002 341.147 18.7511 341.147 25.1592L341.147 34.0064ZM324.555 31.7946H339.073V25.1592C339.073 19.9502 336.088 16.312 331.814 16.312C327.54 16.312 324.555 19.9502 324.555 25.1592L324.555 31.7946Z" fill="white"/>
<path d="M331.814 45.3418C332.959 45.3418 333.888 44.3516 333.888 43.13C333.888 41.9085 332.959 40.9182 331.814 40.9182C330.668 40.9182 329.74 41.9085 329.74 43.13C329.74 44.3516 330.668 45.3418 331.814 45.3418Z" fill="white"/>
<path d="M306.475 123.635H157C156.266 123.634 155.563 123.323 155.044 122.769C154.525 122.216 154.233 121.466 154.232 120.683V81.1434C154.233 80.3608 154.525 79.6105 155.044 79.0571C155.563 78.5038 156.266 78.1925 157 78.1916H306.475C307.209 78.1925 307.913 78.5038 308.432 79.0571C308.951 79.6105 309.243 80.3608 309.243 81.1434V120.683C309.243 121.466 308.951 122.216 308.432 122.769C307.913 123.323 307.209 123.634 306.475 123.635ZM157 79.3723C156.56 79.3728 156.137 79.5596 155.826 79.8916C155.515 80.2236 155.34 80.6738 155.339 81.1434V120.683C155.34 121.153 155.515 121.603 155.826 121.935C156.137 122.267 156.56 122.454 157 122.454H306.475C306.916 122.454 307.338 122.267 307.649 121.935C307.961 121.603 308.136 121.153 308.136 120.683V81.1434C308.136 80.6738 307.961 80.2236 307.649 79.8916C307.338 79.5595 306.916 79.3728 306.475 79.3723L157 79.3723Z" fill="#E6E6E6"/>
<path d="M180.225 111.42C186.453 111.42 191.501 106.037 191.501 99.3961C191.501 92.7554 186.453 87.372 180.225 87.372C173.998 87.372 168.95 92.7554 168.95 99.3961C168.95 106.037 173.998 111.42 180.225 111.42Z" fill="#E6E6E6"/>
<path d="M206.267 91.38C206.02 91.3796 205.775 91.4311 205.547 91.5317C205.318 91.6322 205.111 91.7797 204.936 91.9659C204.761 92.152 204.622 92.3731 204.528 92.6164C204.433 92.8598 204.385 93.1206 204.385 93.384C204.385 93.6475 204.433 93.9083 204.528 94.1517C204.622 94.395 204.761 94.6161 204.936 94.8022C205.111 94.9883 205.318 95.1359 205.547 95.2364C205.775 95.3369 206.02 95.3885 206.267 95.3881H294.861C295.359 95.3881 295.837 95.1769 296.19 94.8011C296.542 94.4253 296.74 93.9155 296.74 93.384C296.74 92.8525 296.542 92.3428 296.19 91.967C295.837 91.5912 295.359 91.38 294.861 91.38H206.267Z" fill="#E6E6E6"/>
<path d="M206.267 103.404C205.768 103.404 205.29 103.615 204.938 103.991C204.585 104.367 204.387 104.877 204.387 105.408C204.387 105.94 204.585 106.449 204.938 106.825C205.29 107.201 205.768 107.412 206.267 107.412H244.389C244.887 107.412 245.365 107.201 245.718 106.825C246.07 106.449 246.268 105.94 246.268 105.408C246.268 104.877 246.07 104.367 245.718 103.991C245.365 103.615 244.887 103.404 244.389 103.404H206.267Z" fill="#E6E6E6"/>
<path d="M123.619 104.215L95.9877 119.88L95.6379 106.826C104.657 105.22 113.237 102.425 121.171 97.874L124.061 90.2603C124.376 89.4306 124.888 88.7026 125.546 88.1476C126.205 87.5926 126.987 87.2297 127.817 87.0946C128.646 86.9595 129.495 87.0568 130.279 87.377C131.062 87.6971 131.755 88.2291 132.287 88.9207C133.067 89.9326 133.456 91.2226 133.377 92.5294C133.298 93.8361 132.756 95.062 131.861 95.9586L123.619 104.215Z" fill="#FFB8B8"/>
<path d="M56.1041 194.661C55.9025 193.873 55.8597 193.048 55.9785 192.24C56.0973 191.433 56.375 190.662 56.7933 189.977L62.8632 180.044C64.2989 177.694 66.5018 175.997 69.0446 175.282C71.5873 174.566 74.2886 174.884 76.6244 176.172C74.0734 180.803 74.429 184.865 77.5054 188.395C72.7297 190.881 68.3158 194.09 64.4005 197.922C63.6857 198.442 62.8648 198.771 62.0063 198.884C61.1477 198.997 60.2762 198.89 59.4646 198.571C58.6529 198.252 57.9244 197.73 57.3399 197.05C56.7553 196.37 56.3316 195.551 56.1041 194.661Z" fill="#2F2E41"/>
<path d="M124.878 181.673C123.959 183.305 122.663 184.658 121.113 185.603C119.562 186.547 117.811 187.05 116.025 187.065L75.7011 187.391L73.9523 176.574L91.7905 170.979L76.7504 158.671L93.1895 138.156L123.048 167.833C124.793 169.568 125.927 171.888 126.26 174.407C126.593 176.927 126.105 179.491 124.878 181.673Z" fill="#2F2E41"/>
<path d="M69.4053 255.647H59.9615C51.4824 193.668 42.8515 131.516 68.356 108.318L98.4361 113.539L94.5886 140.767L77.7997 161.282L69.4053 255.647Z" fill="#2F2E41"/>
<path d="M77.7068 269.687C76.9675 269.902 76.1939 269.948 75.4369 269.821C74.6799 269.694 73.9565 269.398 73.3145 268.952L63.0606 267.483C60.8572 265.952 59.2656 263.603 58.5946 260.891C57.9236 258.18 58.221 255.299 59.4292 252.808C63.7716 255.528 67.5809 255.149 70.8911 251.868C73.23 256.904 77.0837 256.597 80.7641 260.84C81.2515 261.602 81.5609 262.477 81.6668 263.393C81.7726 264.308 81.6718 265.238 81.3727 266.103C81.0736 266.969 80.5848 267.746 79.9472 268.369C79.3095 268.992 78.5414 269.444 77.7068 269.687Z" fill="#2F2E41"/>
<path d="M91.7905 66.9162L74.302 62.4404C77.2066 56.1004 77.4458 49.0458 76.0509 41.5532L87.943 41.1802C88.3156 50.4974 89.4429 59.2021 91.7905 66.9162Z" fill="#FFB8B8"/>
<path d="M96.5969 124.77C83.866 134.021 74.8707 125.086 68.0062 111.301C68.9601 102.866 67.4156 92.7722 64.5551 81.804C63.283 76.9662 63.7579 71.7957 65.8862 67.3131C68.0145 62.8305 71.6414 59.3618 76.0509 57.5916L91.0909 64.3053C103.862 75.4059 106.375 87.4301 101.584 100.112L96.5969 124.77Z" fill="#FF6372"/>
<path d="M59.9615 76.2409L45.9708 84.0735L70.8044 99.7389L74.2598 108.828C74.4904 109.435 74.6028 110.085 74.59 110.74C74.5772 111.394 74.4396 112.039 74.1855 112.635C73.9314 113.231 73.5661 113.765 73.112 114.206C72.6578 114.646 72.1243 114.983 71.544 115.197C70.8843 115.439 70.181 115.516 69.489 115.42C68.7969 115.324 68.1351 115.059 67.5553 114.645C66.9754 114.231 66.4933 113.68 66.1468 113.034C65.8002 112.388 65.5985 111.665 65.5575 110.922L65.2081 104.588L33.6449 93.4805C32.5815 93.1063 31.6118 92.4789 30.8094 91.6459C30.007 90.8129 29.3929 89.796 29.0136 88.6725C28.4607 87.0347 28.4326 85.2476 28.9336 83.5909C29.4346 81.9342 30.4365 80.5014 31.7826 79.5167L57.1634 60.9485L59.9615 76.2409Z" fill="#FFB8B8"/>
<path d="M73.9523 77.7328C68.1173 75.0059 62.8113 77.9681 56.1141 80.3437L55.0648 60.5755C61.7149 56.7958 68.0553 55.7767 73.9523 58.7106L73.9523 77.7328Z" fill="#FF6372"/>
<path d="M80.9323 50.9721C87.0989 50.9721 92.098 45.6412 92.098 39.0653C92.098 32.4893 87.0989 27.1584 80.9323 27.1584C74.7656 27.1584 69.7666 32.4893 69.7666 39.0653C69.7666 45.6412 74.7656 50.9721 80.9323 50.9721Z" fill="#FFB8B8"/>
<path d="M94.29 37.5629C83.235 38.7175 74.8112 36.7895 69.4275 31.2998V26.8788H93.3518L94.29 37.5629Z" fill="#2F2E41"/>
</g>
<defs>
<clipPath id="clip0_23_80">
<rect width="372" height="276" fill="white"/>
</clipPath>
</defs>
</svg>
